<svg xmlns="http://www.w3.org/2000/svg" viewBox="0 0 22.601 20.395">
    <defs>
        <style>
          .cls-1{fill:#FF5000;stroke:#FF5000;stroke-width:.4px}
        </style>
    </defs>
    <g id="noun_History_287792" transform="translate(35.9 -24.3)">
        <g id="Group_152" data-name="Group 152" transform="translate(-26 17)">
            <path id="Path_201" d="M1.5 11.5a1 1 0 0 0-1 1v6a1 1 0 0 0 1 1h4a1 1 0 0 0 0-2h-3v-5a1 1 0 0 0-1-1z" class="cls-1" data-name="Path 201"/>
            <path id="Path_202" d="M9.571 10.429A9.934 9.934 0 0 0 2.5 7.5a9.934 9.934 0 0 0-7.071 2.929A9.934 9.934 0 0 0-7.5 17.5h-2l3 4 3-4h-2a7.948 7.948 0 0 1 2.343-5.657A7.948 7.948 0 0 1 2.5 9.5a7.948 7.948 0 0 1 5.657 2.343 8 8 0 0 1 0 11.314 8.009 8.009 0 0 1-11.313 0 1 1 0 0 0-1.414 0 1 1 0 0 0 0 1.414 9.967 9.967 0 0 0 7.07 2.924 9.969 9.969 0 0 0 7.071-2.924 10 10 0 0 0 0-14.142z" class="cls-1" data-name="Path 202"/>
        </g>
    </g>
</svg>
